# xmcd
#
# Track frame offsets:
#	150
#	11137
#	21110
#	33834
#	47025
#	58903
#	68821
#	82888
#	95426
#	107609
#	122365
#	141136
#	154611
#	167839
#
# Disc length: 2392 seconds
# Revision: 0
# Processed by: cddbd v1.5.2PL0 Copyright (c) Steve Scherf et al.
# Submitted via: dBpowerAMP V12.0
#
DISCID=ab09560e
DTITLE=Les Gilliam - Hank Did It This Way
DYEAR=2008
DGENRE=Country
TTITLE0=Hank Was His Name
TTITLE1=Won't You Ride in My Little Red Wagon?
TTITLE2=Send Me the Pillow That You Dream On
TTITLE3=I'm Movin' On
TTITLE4=A Fool Such As I
TTITLE5=Humpty Dumpty Heart
TTITLE6=Most of All
TTITLE7=Wild Side of Life
TTITLE8=Gals along the Yukon
TTITLE9=Kawliga
TTITLE10=Medley: You Win Again - I Can't Help It - Cold, Cold Heart
TTITLE11=Hey, Good Lookin'
TTITLE12=Take These Chains from My Heart
TTITLE13=What's Right with America
EXTD=
EXTT0=
EXTT1=
EXTT2=
EXTT3=
EXTT4=
EXTT5=
EXTT6=
EXTT7=
EXTT8=
EXTT9=
EXTT10=
EXTT11=
EXTT12=
EXTT13=
PLAYORDER=
